name ./resultDataOpenSim/trcMotMarkerGrf/sub06/grf-14-07.mot
datacolumns 19
datarows 27
range 0.52400000 0.62800000
endheader

                time	     ground_force_vx	     ground_force_vy	     ground_force_vz	     ground_force_px	     ground_force_py	     ground_force_pz	   l_ground_force_vx	   l_ground_force_vy	   l_ground_force_vz	   l_ground_force_px	   l_ground_force_py	   l_ground_force_pz	     ground_torque_x	     ground_torque_y	     ground_torque_z	   l_ground_torque_x	   l_ground_torque_y	   l_ground_torque_z	
          0.52400000	         63.78584834	        471.95505583	        -26.15557616	         -0.77679487	          0.00000000	          0.10439099	          0.00000000	          0.00000000	          0.00000000	          0.00000000	          0.00000000	          0.00000000	          0.00000000	          1.66869817	          0.00000000	          0.00000000	          0.00000000	          0.00000000	
          0.52800000	         67.38623113	        491.80233493	        -25.31501472	         -0.77637245	          0.00000000	          0.10376612	          0.00000000	          0.00000000	          0.00000000	          0.00000000	          0.00000000	          0.00000000	          0.00000000	          1.87008480	          0.00000000	          0.00000000	          0.00000000	          0.00000000	
          0.53200000	         71.03647029	        512.06863236	        -24.51628846	         -0.77591935	          0.00000000	          0.10318883	          0.00000000	          0.00000000	          0.00000000	          0.00000000	          0.00000000	          0.00000000	          0.00000000	          2.07413788	          0.00000000	          0.00000000	          0.00000000	          0.00000000	
          0.53600000	         74.72788853	        532.54937384	        -23.86792357	         -0.77543352	          0.00000000	          0.10266387	          0.00000000	          0.00000000	          0.00000000	          0.00000000	          0.00000000	          0.00000000	          0.00000000	          2.27114602	          0.00000000	          0.00000000	          0.00000000	          0.00000000	
          0.54000000	         78.53189470	        553.03970329	        -23.45549798	         -0.77493046	          0.00000000	          0.10219145	          0.00000000	          0.00000000	          0.00000000	          0.00000000	          0.00000000	          0.00000000	          0.00000000	          2.45023822	          0.00000000	          0.00000000	          0.00000000	          0.00000000	
          0.54400000	         82.58349540	        573.32871058	        -23.32978057	         -0.77443252	          0.00000000	          0.10177176	          0.00000000	          0.00000000	          0.00000000	          0.00000000	          0.00000000	          0.00000000	          0.00000000	          2.60136391	          0.00000000	          0.00000000	          0.00000000	          0.00000000	
          0.54800000	         87.04564411	        593.20708761	        -23.49881581	         -0.77396161	          0.00000000	          0.10140550	          0.00000000	          0.00000000	          0.00000000	          0.00000000	          0.00000000	          0.00000000	          0.00000000	          2.71720787	          0.00000000	          0.00000000	          0.00000000	          0.00000000	
          0.55200000	         92.06647630	        612.49695873	        -23.92661752	         -0.77353203	          0.00000000	          0.10109503	          0.00000000	          0.00000000	          0.00000000	          0.00000000	          0.00000000	          0.00000000	          0.00000000	          2.79463398	          0.00000000	          0.00000000	          0.00000000	          0.00000000	
          0.55600000	         97.73223217	        631.09549318	        -24.54287524	         -0.77315055	          0.00000000	          0.10084036	          0.00000000	          0.00000000	          0.00000000	          0.00000000	          0.00000000	          0.00000000	          0.00000000	          2.83531207	          0.00000000	          0.00000000	          0.00000000	          0.00000000	
          0.56000000	        104.02761916	        649.00076539	        -25.26805734	         -0.77282908	          0.00000000	          0.10062655	          0.00000000	          0.00000000	          0.00000000	          0.00000000	          0.00000000	          0.00000000	          0.00000000	          2.84525744	          0.00000000	          0.00000000	          0.00000000	          0.00000000	
          0.56400000	        110.84250005	        666.25453649	        -26.03834155	         -0.77259507	          0.00000000	          0.10042837	          0.00000000	          0.00000000	          0.00000000	          0.00000000	          0.00000000	          0.00000000	          0.00000000	          2.83322268	          0.00000000	          0.00000000	          0.00000000	          0.00000000	
          0.56800000	        118.02596625	        682.80450377	        -26.80650425	         -0.77245798	          0.00000000	          0.10024017	          0.00000000	          0.00000000	          0.00000000	          0.00000000	          0.00000000	          0.00000000	          0.00000000	          2.80829584	          0.00000000	          0.00000000	          0.00000000	          0.00000000	
          0.57200000	        125.42291925	        698.45172863	        -27.53736677	         -0.77235461	          0.00000000	          0.10009187	          0.00000000	          0.00000000	          0.00000000	          0.00000000	          0.00000000	          0.00000000	          0.00000000	          2.77744467	          0.00000000	          0.00000000	          0.00000000	          0.00000000	
          0.57600000	        132.88255170	        713.00736946	        -28.22498934	         -0.77218218	          0.00000000	          0.10002074	          0.00000000	          0.00000000	          0.00000000	          0.00000000	          0.00000000	          0.00000000	          0.00000000	          2.74376264	          0.00000000	          0.00000000	          0.00000000	          0.00000000	
          0.58000000	        140.29479926	        726.48550759	        -28.90545839	         -0.77189857	          0.00000000	          0.10002118	          0.00000000	          0.00000000	          0.00000000	          0.00000000	          0.00000000	          0.00000000	          0.00000000	          2.70582678	          0.00000000	          0.00000000	          0.00000000	          0.00000000	
          0.58400000	        147.63615746	        739.06376427	        -29.63689437	         -0.77156865	          0.00000000	          0.10004561	          0.00000000	          0.00000000	          0.00000000	          0.00000000	          0.00000000	          0.00000000	          0.00000000	          2.65820529	          0.00000000	          0.00000000	          0.00000000	          0.00000000	
          0.58800000	        154.94974760	        750.82952559	        -30.46846899	         -0.77128015	          0.00000000	          0.10005558	          0.00000000	          0.00000000	          0.00000000	          0.00000000	          0.00000000	          0.00000000	          0.00000000	          2.59296335	          0.00000000	          0.00000000	          0.00000000	          0.00000000	
          0.59200000	        162.27576798	        761.58395876	        -31.42601017	         -0.77104592	          0.00000000	          0.10005915	          0.00000000	          0.00000000	          0.00000000	          0.00000000	          0.00000000	          0.00000000	          0.00000000	          2.50188894	          0.00000000	          0.00000000	          0.00000000	          0.00000000	
          0.59600000	        169.62192818	        770.90845074	        -32.51515976	         -0.77079448	          0.00000000	          0.10009528	          0.00000000	          0.00000000	          0.00000000	          0.00000000	          0.00000000	          0.00000000	          0.00000000	          2.37894437	          0.00000000	          0.00000000	          0.00000000	          0.00000000	
          0.60000000	        176.99134998	        778.43288696	        -33.72004415	         -0.77045567	          0.00000000	          0.10019190	          0.00000000	          0.00000000	          0.00000000	          0.00000000	          0.00000000	          0.00000000	          0.00000000	          2.22225580	          0.00000000	          0.00000000	          0.00000000	          0.00000000	
          0.60400000	        184.40866760	        784.03406233	        -34.97575486	         -0.77005600	          0.00000000	          0.10033008	          0.00000000	          0.00000000	          0.00000000	          0.00000000	          0.00000000	          0.00000000	          0.00000000	          2.03499982	          0.00000000	          0.00000000	          0.00000000	          0.00000000	
          0.60800000	        191.90177766	        787.75846104	        -36.15399236	         -0.76968884	          0.00000000	          0.10045884	          0.00000000	          0.00000000	          0.00000000	          0.00000000	          0.00000000	          0.00000000	          0.00000000	          1.82490351	          0.00000000	          0.00000000	          0.00000000	          0.00000000	
          0.61200000	        199.45247163	        789.58714350	        -37.10337562	         -0.76939664	          0.00000000	          0.10055652	          0.00000000	          0.00000000	          0.00000000	          0.00000000	          0.00000000	          0.00000000	          0.00000000	          1.60262410	          0.00000000	          0.00000000	          0.00000000	          0.00000000	
          0.61600000	        206.97132548	        789.33960810	        -37.69934056	         -0.76912294	          0.00000000	          0.10063932	          0.00000000	          0.00000000	          0.00000000	          0.00000000	          0.00000000	          0.00000000	          0.00000000	          1.37966462	          0.00000000	          0.00000000	          0.00000000	          0.00000000	
          0.62000000	        214.32825055	        786.80564965	        -37.86077066	         -0.76879322	          0.00000000	          0.10072563	          0.00000000	          0.00000000	          0.00000000	          0.00000000	          0.00000000	          0.00000000	          0.00000000	          1.16641551	          0.00000000	          0.00000000	          0.00000000	          0.00000000	
          0.62400000	        221.40321021	        781.91922610	        -37.54799251	         -0.76839243	          0.00000000	          0.10080983	          0.00000000	          0.00000000	          0.00000000	          0.00000000	          0.00000000	          0.00000000	          0.00000000	          0.97059275	          0.00000000	          0.00000000	          0.00000000	          0.00000000	
          0.62800000	        228.10107710	        774.77784644	        -36.76242171	         -0.76796865	          0.00000000	          0.10086599	          0.00000000	          0.00000000	          0.00000000	          0.00000000	          0.00000000	          0.00000000	          0.00000000	          0.79616348	          0.00000000	          0.00000000	          0.00000000	          0.00000000	
